<svg width="21" height="18" viewBox="0 0 21 18" fill="none" xmlns="http://www.w3.org/2000/svg">
<path d="M14.8194 0.370377C15.6128 0.370257 16.3766 0.666473 16.9557 1.19894C17.5349 1.73141 17.8861 2.46026 17.9382 3.23766L17.9444 3.43896V6.56891C18.6142 6.70342 19.2207 7.04982 19.6708 7.55505C20.121 8.06028 20.3901 8.69649 20.4369 9.36623L20.4444 9.57612V16.9407C20.4447 17.0941 20.3865 17.242 20.2813 17.3553C20.1761 17.4687 20.0315 17.5392 19.8759 17.553C19.7204 17.5669 19.5652 17.5231 19.4409 17.4302C19.3166 17.3373 19.2323 17.2021 19.2044 17.0512L19.1944 16.9407V13.8721H1.69444V16.9407C1.69473 17.0941 1.63653 17.242 1.53131 17.3553C1.42608 17.4687 1.28146 17.5392 1.12592 17.553C0.970372 17.5669 0.815181 17.5231 0.690903 17.4302C0.566626 17.3373 0.482268 17.2021 0.454443 17.0512L0.444443 16.9407V9.57612C0.444296 8.86872 0.693057 8.18299 1.14863 7.63499C1.6042 7.087 2.23859 6.71039 2.94444 6.56891V3.43896C2.94432 2.65988 3.24598 1.90993 3.78824 1.34122C4.3305 0.772509 5.07275 0.427621 5.86444 0.376514L6.06944 0.370377H14.8194ZM17.3194 7.73497H3.56944C3.10354 7.73496 2.65431 7.90528 2.30931 8.21275C1.9643 8.52021 1.74823 8.94279 1.70319 9.39814L1.69444 9.57612V12.6447H19.1944V9.57612C19.1945 9.11862 19.021 8.67751 18.7079 8.33873C18.3948 7.99996 17.9644 7.78779 17.5007 7.74356L17.3194 7.73497ZM14.8194 1.59781H6.06944C5.60334 1.59783 5.15395 1.76832 4.80892 2.07604C4.46388 2.38376 4.24794 2.80663 4.20319 3.26221L4.19444 3.43896V6.50754H5.44444V5.89382C5.44444 5.73105 5.51029 5.57495 5.6275 5.45986C5.74471 5.34477 5.90368 5.28011 6.06944 5.28011H9.19444C9.3602 5.28011 9.51917 5.34477 9.63638 5.45986C9.7536 5.57495 9.81944 5.73105 9.81944 5.89382V6.50754H11.0694V5.89382C11.0694 5.73105 11.1353 5.57495 11.2525 5.45986C11.3697 5.34477 11.5287 5.28011 11.6944 5.28011H14.8194C14.9852 5.28011 15.1442 5.34477 15.2614 5.45986C15.3786 5.57495 15.4444 5.73105 15.4444 5.89382V6.50754H16.6944V3.43896C16.6945 2.98146 16.521 2.54035 16.2079 2.20157C15.8948 1.8628 15.4644 1.65063 15.0007 1.6064L14.8194 1.59781Z" fill="#AABB5D"/>
</svg>
