<svg width="22" height="19" viewBox="0 0 22 19" fill="none" xmlns="http://www.w3.org/2000/svg">
<path d="M14.5208 5.82833H8.97916V3.99666H14.5208V5.82833ZM22.8333 2.16499V16.8183C22.8333 17.8349 21.6003 18.65 20.0625 18.65H3.43749C1.89968 18.65 0.666656 17.8349 0.666656 16.8183V2.16499C0.666656 1.67921 0.958583 1.21331 1.47821 0.869811C1.99785 0.526307 2.70262 0.333328 3.43749 0.333328H20.0625C20.7974 0.333328 21.5021 0.526307 22.0218 0.869811C22.5414 1.21331 22.8333 1.67921 22.8333 2.16499ZM20.0625 10.4075H3.43749V16.8183H20.0625V10.4075ZM20.0625 2.16499H3.43749V8.57583H20.0625V2.16499ZM14.5208 12.2392H8.97916V14.0708H14.5208V12.2392Z" fill="#AABB5D"/>
</svg>
