<svg width="25" height="24" viewBox="0 0 25 24" fill="none" xmlns="http://www.w3.org/2000/svg">
<path fill-rule="evenodd" clip-rule="evenodd" d="M5.40066 13.5385C10.4087 13.5385 10.6314 15.2369 10.6314 18.7692C10.6314 20.5391 10.6314 21.7982 9.88805 22.72C9.03266 23.7822 7.47574 24 5.40066 24C3.32558 24 1.76866 23.7822 0.913276 22.72C0.169891 21.7982 0.169891 20.5403 0.169891 18.8L1.09297 18.7692H0.169891C0.169891 15.2369 0.392661 13.5385 5.40066 13.5385ZM18.9391 13.5385C23.9471 13.5385 24.1699 15.2369 24.1699 18.7692C24.1699 20.5391 24.1699 21.7982 23.4265 22.72C22.5711 23.7822 21.0142 24 18.9391 24C16.864 24 15.3071 23.7822 14.4517 22.72C13.7084 21.7982 13.7084 20.5403 13.7084 18.8L14.6314 18.7692H13.7084C13.7084 15.2369 13.9311 13.5385 18.9391 13.5385ZM5.6544 15.3852L5.40066 15.3846C2.18962 15.3846 2.02495 15.615 2.0165 18.3102L2.01702 19.3602C2.02285 20.4322 2.06369 21.2065 2.34958 21.5631C2.67574 21.9668 3.64435 22.1538 5.40066 22.1538C7.15697 22.1538 8.12558 21.9655 8.45174 21.5618C8.78528 21.1471 8.78528 20.1625 8.78528 18.7988C8.78528 15.7216 8.78528 15.3997 5.6544 15.3852ZM19.1929 15.3852L18.9391 15.3846C15.7281 15.3846 15.5634 15.615 15.555 18.3102L15.5555 19.3602C15.5613 20.4322 15.6022 21.2065 15.888 21.5631C16.2142 21.9668 17.1828 22.1538 18.9391 22.1538C20.6954 22.1538 21.664 21.9655 21.9902 21.5618C22.3237 21.1471 22.3237 20.1625 22.3237 18.7988C22.3237 15.7216 22.3237 15.3997 19.1929 15.3852ZM5.40066 0C10.4087 0 10.6314 1.69846 10.6314 5.23077C10.6314 7.00062 10.6314 8.25969 9.88805 9.18154C9.03266 10.2437 7.47574 10.4615 5.40066 10.4615C3.32558 10.4615 1.76866 10.2437 0.913276 9.18154C0.169891 8.25969 0.169891 7.00185 0.169891 5.26154L1.09297 5.23077H0.169891C0.169891 1.69846 0.392661 0 5.40066 0ZM18.9391 0C23.9471 0 24.1699 1.69846 24.1699 5.23077C24.1699 7.00062 24.1699 8.25969 23.4265 9.18154C22.5711 10.2437 21.0142 10.4615 18.9391 10.4615C16.864 10.4615 15.3071 10.2437 14.4517 9.18154C13.7084 8.25969 13.7084 7.00185 13.7084 5.26154L14.6314 5.23077H13.7084C13.7084 1.69846 13.9311 0 18.9391 0ZM5.6544 1.8467L5.40066 1.84615C2.18962 1.84615 2.02495 2.07657 2.0165 4.77175L2.01702 5.82176C2.02285 6.89371 2.06369 7.66804 2.34958 8.02462C2.67574 8.42831 3.64435 8.61539 5.40066 8.61539C7.15697 8.61539 8.12558 8.42708 8.45174 8.02339C8.78528 7.60862 8.78528 6.624 8.78528 5.26031C8.78528 2.18313 8.78528 1.86119 5.6544 1.8467ZM19.1929 1.8467L18.9391 1.84615C15.7281 1.84615 15.5634 2.07657 15.555 4.77175L15.5555 5.82176C15.5613 6.89371 15.6022 7.66804 15.888 8.02462C16.2142 8.42831 17.1828 8.61539 18.9391 8.61539C20.6954 8.61539 21.664 8.42708 21.9902 8.02339C22.3237 7.60862 22.3237 6.624 22.3237 5.26031C22.3237 2.18313 22.3237 1.86119 19.1929 1.8467Z" fill="black" fill-opacity="0.74"/>
</svg>
