<svg width="24" height="22" viewBox="0 0 24 22" fill="none" xmlns="http://www.w3.org/2000/svg">
<path d="M6 3.4375C6 2.89049 6.23705 2.36589 6.65901 1.97909C7.08097 1.5923 7.65326 1.375 8.25 1.375H15.75C16.3467 1.375 16.919 1.5923 17.341 1.97909C17.7629 2.36589 18 2.89049 18 3.4375V4.125C17.9999 4.73472 17.7789 5.32715 17.3716 5.80922C16.9644 6.2913 16.394 6.63572 15.75 6.78837V8.9375C16.3448 8.9375 16.8765 9.174 17.3048 9.47169C17.7375 9.77281 18.1185 10.1716 18.4313 10.5896C19.038 11.4008 19.5 12.4389 19.5 13.2344C19.5 13.658 19.3449 14.0693 19.0594 14.4024C18.7739 14.7355 18.3747 14.9711 17.9257 15.0714L18.9067 19.5112C19.1257 20.5287 18.12 21.2052 17.553 19.5112L15.96 15.125H15.726L15.6585 17.8626C15.6263 18.9166 14.6888 18.7798 14.646 17.8626L14.3475 15.125H9.6525L9.354 17.8626C9.3105 18.7798 8.37375 18.9166 8.3415 17.8626L8.274 15.125H8.03925L6.44625 19.5112C5.87925 21.2052 4.8735 20.5287 5.0925 19.5112L6.0735 15.0714C5.62473 14.9709 5.22575 14.7352 4.94046 14.4021C4.65516 14.069 4.50006 13.6578 4.5 13.2344C4.5 12.4396 4.962 11.4008 5.56875 10.5896C5.8815 10.1716 6.2625 9.77281 6.69525 9.47169C7.1235 9.174 7.65525 8.9375 8.25 8.9375V6.78837C7.60603 6.63572 7.03563 6.2913 6.62837 5.80922C6.22112 5.32715 6.00009 4.73472 6 4.125V3.4375ZM8.25 10.3125C8.09475 10.3125 7.8765 10.3764 7.602 10.5676C7.33125 10.7559 7.056 11.0337 6.80625 11.3671C6.288 12.0601 6 12.826 6 13.2344C6 13.519 6.252 13.75 6.5625 13.75H17.4375C17.5867 13.75 17.7298 13.6957 17.8352 13.599C17.9407 13.5023 18 13.3711 18 13.2344C18 12.826 17.712 12.0601 17.1937 11.3671C16.944 11.0337 16.6687 10.7552 16.3988 10.5676C16.1235 10.3764 15.9052 10.3125 15.75 10.3125H8.25ZM14.25 8.9375V6.875H9.75V8.9375H14.25ZM16.5 4.125V3.4375C16.5 3.25516 16.421 3.0803 16.2803 2.95136C16.1397 2.82243 15.9489 2.75 15.75 2.75H8.25C8.05109 2.75 7.86032 2.82243 7.71967 2.95136C7.57902 3.0803 7.5 3.25516 7.5 3.4375V4.125C7.5 4.48967 7.65804 4.83941 7.93934 5.09727C8.22064 5.35513 8.60218 5.5 9 5.5H15C15.3978 5.5 15.7794 5.35513 16.0607 5.09727C16.342 4.83941 16.5 4.48967 16.5 4.125Z" fill="#AABB5D"/>
</svg>
