<svg width="22" height="18" viewBox="0 0 22 18" fill="none" xmlns="http://www.w3.org/2000/svg">
<path d="M1.25 13.3333V16.5833M3.2 5.75001V3.58334C3.2 3.0087 3.40545 2.4576 3.77114 2.05127C4.13684 1.64494 4.63283 1.41667 5.15 1.41667H16.85C17.3672 1.41667 17.8632 1.64494 18.2289 2.05127C18.5946 2.4576 18.8 3.0087 18.8 3.58334V5.75001" stroke="#AABB5D" stroke-width="1.25" stroke-linecap="round" stroke-linejoin="round"/>
<path d="M20.75 13.3333V16.5833M18.8 5.75C18.2828 5.75 17.7868 5.97827 17.4211 6.3846C17.0554 6.79093 16.85 7.34203 16.85 7.91667V10.0833H5.15V7.91667C5.15 7.34203 4.94455 6.79093 4.57886 6.3846C4.21316 5.97827 3.71717 5.75 3.2 5.75C2.68283 5.75 2.18684 5.97827 1.82114 6.3846C1.45545 6.79093 1.25 7.34203 1.25 7.91667V14.4167H20.75V7.91667C20.75 7.34203 20.5446 6.79093 20.1789 6.3846C19.8132 5.97827 19.3172 5.75 18.8 5.75Z" stroke="#AABB5D" stroke-width="1.25" stroke-linecap="round" stroke-linejoin="round"/>
</svg>
