<svg width="25" height="22" viewBox="0 0 25 22" fill="none" xmlns="http://www.w3.org/2000/svg">
<path fill-rule="evenodd" clip-rule="evenodd" d="M20.5543 13.4325C23.0057 13.4325 25 15.3543 25 17.7162C25 20.0781 23.0057 22 20.5543 22C18.1014 22 16.1057 20.0781 16.1057 17.7162C16.1057 15.3543 18.1014 13.4325 20.5543 13.4325ZM20.5543 15.5079C19.2828 15.5079 18.2485 16.4986 18.2485 17.7162C18.2485 18.9352 19.2828 19.9245 20.5543 19.9245C21.8243 19.9245 22.8571 18.9352 22.8571 17.7162C22.8571 16.4986 21.8243 15.5079 20.5543 15.5079ZM10.1148 16.7322C10.7062 16.7322 11.1862 17.1971 11.1862 17.7699C11.1862 18.3427 10.7062 18.8076 10.1148 18.8076H1.11329C0.52186 18.8076 0.0418574 18.3427 0.0418574 17.7699C0.0418574 17.1971 0.52186 16.7322 1.11329 16.7322H10.1148ZM4.44717 0C6.90004 0 8.89434 1.92327 8.89434 4.28516C8.89434 6.64704 6.90004 8.56755 4.44717 8.56755C1.99573 8.56755 0 6.64704 0 4.28516C0 1.92327 1.99573 0 4.44717 0ZM4.44717 2.07547C3.17716 2.07547 2.14287 3.06616 2.14287 4.28516C2.14287 5.50277 3.17716 6.49208 4.44717 6.49208C5.7186 6.49208 6.75147 5.50277 6.75147 4.28516C6.75147 3.06616 5.7186 2.07547 4.44717 2.07547ZM23.1303 3.32131C23.7217 3.32131 24.2017 3.78621 24.2017 4.35904C24.2017 4.93187 23.7217 5.39678 23.1303 5.39678H14.1302C13.5388 5.39678 13.0588 4.93187 13.0588 4.35904C13.0588 3.78621 13.5388 3.32131 14.1302 3.32131H23.1303Z" fill="black" fill-opacity="0.74"/>
</svg>
