<svg width="19" height="18" viewBox="0 0 19 18" fill="none" xmlns="http://www.w3.org/2000/svg">
<path fill-rule="evenodd" clip-rule="evenodd" d="M9.13102 0C14.1659 0 18.2613 3.78152 18.2613 8.4305C18.2613 10.6239 17.3497 12.6243 15.8579 14.1257L18.7933 16.8304C19.068 17.0841 19.0689 17.4944 18.7942 17.7481C18.6573 17.8762 18.4764 17.9394 18.2964 17.9394C18.1173 17.9394 17.9373 17.8762 17.7994 17.7498L14.8286 15.0144C13.2659 16.17 11.2844 16.8619 9.13102 16.8619C4.09615 16.8619 -0.000198364 13.0795 -0.000198364 8.4305C-0.000198364 3.78152 4.09615 0 9.13102 0ZM9.13102 1.2986C4.87154 1.2986 1.40619 4.49748 1.40619 8.4305C1.40619 12.3635 4.87154 15.5633 9.13102 15.5633C13.3896 15.5633 16.8549 12.3635 16.8549 8.4305C16.8549 4.49748 13.3896 1.2986 9.13102 1.2986Z" fill="black"/>
</svg>
